{"title":"Merlin S05xE02 - Arthur's Bane Part 2 Xvid[MixxTV]","uid":7724529,"size":587670996,"categoryP":"video","categoryS":"tv_shows","magnet":"?xt=urn:btih:bdda336edaf78fa36a1301275234de667b263113&amp;dn=Merlin+S05xE02+-+Arthur%27s+Bane+Part+2+Xvid%5BMixxTV%5D&amp;tr=udp%3A%2F%2Ftracker.openbittorrent.com%3A80&amp;tr=udp%3A%2F%2Fopen.demonii.com%3A1337&amp;tr=udp%3A%2F%2Ftracker.coppersurfer.tk%3A6969&amp;tr=udp%3A%2F%2Fexodus.desync.com%3A6969","seeders":1,"leechers":0,"uploader":"pspxxx","files":-1,"time":1350168845,"description":"Merlin S05xE02 - Arthur's Bane Part 2\n\nSome ancient prophecies of Mordred weigh on Merlin's mind as he is unable to sway Arthur from his chosen path. The fortress of Ismere is coming ever nearer and Merlin's fear intensifies. It looks like this time, not even Merlin can stop Arthur from walking right into the lion's den.\n\nScreens:\n &lt;a href=&quot;\nhttp://bayimg.com/LAEciAAEA&quot; rel=&quot;nofollow&quot; target=&quot;_NEW&quot;&gt;\nhttp://bayimg.com/LAEciAAEA&lt;/a&gt;\n\noverloadextreme.net\n\nFormat                                   : AVI\nFormat/Info                              : Audio Video Interleave\nFile size                                : 560 MiB\nDuration                                 : 43mn 18s\nOverall bit rate                         : 1 809 Kbps\nWriting application                      : Lavf53.18.0\n\nVideo\nID                                       : 0\nFormat                                   : xvid\nCodec ID                                 : xvid\nDuration                                 : 43mn 18s\nBit rate                                 : 1 668 Kbps\nWidth                                    : 720 pixels\nHeight                                   : 404 pixels\nDisplay aspect ratio                     : 16:9\nFrame rate                               : 29.970 fps\nBits/(Pixel*Frame)                       : 0.191\nStream size                              : 517 MiB (92%)\n\nAudio\nID                                       : 1\nFormat                                   : MPEG Audio\nFormat version                           : Version 1\nFormat profile                           : Layer 3\nMode                                     : Joint stereo\nMode extension                           : MS Stereo\nCodec ID                                 : 55\nCodec ID/Hint                            : MP3\nDuration                                 : 43mn 18s\nBit rate mode                            : Constant\nBit rate                                 : 128 Kbps\nChannel(s)                               : 2 channels\nSampling rate                            : 44.1 KHz\nCompression mode                         : Lossy\nStream size                              : 39.6 MiB (7%)\nAlignment                                : Aligned on interleaves\nInterleave, duration                     : 26 ms (0.78 video frame)\n\n","torrent":{"xt":"urn:btih:bdda336edaf78fa36a1301275234de667b263113","amp;dn":"Merlin+S05xE02+-+Arthur%27s+Bane+Part+2+Xvid%5BMixxTV%5D","amp;tr":["udp%3A%2F%2Ftracker.openbittorrent.com%3A80","udp%3A%2F%2Fopen.demonii.com%3A1337","udp%3A%2F%2Ftracker.coppersurfer.tk%3A6969","udp%3A%2F%2Fexodus.desync.com%3A6969"],"infoHash":"bdda336edaf78fa36a1301275234de667b263113","infoHashBuffer":{"type":"Buffer","data":[189,218,51,110,218,247,143,163,106,19,1,39,82,52,222,102,123,38,49,19]},"announce":[],"urlList":[]}}